<?xml version="1.0" encoding="UTF-8" standalone="no"?>
<!-- Generator: Gravit.io -->
<svg xmlns="http://www.w3.org/2000/svg" xmlns:xlink="http://www.w3.org/1999/xlink" style="isolation:isolate" viewBox="104.138 346.226 387 149.438" width="387pt" height="149.438pt"><path d=" M 167.091 406.039 L 167.091 406.039 L 164.325 407.867 L 164.325 407.867 Q 161.794 404.117 157.739 401.937 L 157.739 401.937 L 157.739 401.937 Q 153.685 399.757 148.95 399.757 L 148.95 399.757 L 148.95 399.757 Q 141.263 399.757 135.825 405.195 L 135.825 405.195 L 135.825 405.195 Q 130.388 410.632 130.388 418.32 L 130.388 418.32 L 130.388 418.32 Q 130.388 426.007 135.825 431.445 L 135.825 431.445 L 135.825 431.445 Q 141.263 436.882 148.95 436.882 L 148.95 436.882 L 148.95 436.882 Q 153.685 436.882 157.739 434.679 L 157.739 434.679 L 157.739 434.679 Q 161.794 432.476 164.325 428.726 L 164.325 428.726 L 167.044 430.695 L 167.044 430.695 Q 164.044 435.101 159.263 437.679 L 159.263 437.679 L 159.263 437.679 Q 154.482 440.257 148.95 440.257 L 148.95 440.257 L 148.95 440.257 Q 144.497 440.257 140.442 438.523 L 140.442 438.523 L 140.442 438.523 Q 136.388 436.789 133.435 433.836 L 133.435 433.836 L 133.435 433.836 Q 130.482 430.882 128.747 426.828 L 128.747 426.828 L 128.747 426.828 Q 127.013 422.773 127.013 418.32 L 127.013 418.32 L 127.013 418.32 Q 127.013 413.867 128.747 409.812 L 128.747 409.812 L 128.747 409.812 Q 130.482 405.757 133.435 402.804 L 133.435 402.804 L 133.435 402.804 Q 136.388 399.851 140.442 398.117 L 140.442 398.117 L 140.442 398.117 Q 144.497 396.382 148.95 396.382 L 148.95 396.382 L 148.95 396.382 Q 154.528 396.382 159.31 398.984 L 159.31 398.984 L 159.31 398.984 Q 164.091 401.586 167.091 406.039 Z  M 172.669 402.195 L 172.669 402.195 L 169.857 404.023 L 169.857 404.023 Q 166.388 398.961 160.88 395.984 L 160.88 395.984 L 160.88 395.984 Q 155.372 393.007 148.95 393.007 L 148.95 393.007 L 148.95 393.007 Q 142.06 393.007 136.247 396.406 L 136.247 396.406 L 136.247 396.406 Q 130.435 399.804 127.036 405.617 L 127.036 405.617 L 127.036 405.617 Q 123.638 411.429 123.638 418.32 L 123.638 418.32 L 123.638 418.32 Q 123.638 425.211 127.036 431.023 L 127.036 431.023 L 127.036 431.023 Q 130.435 436.836 136.247 440.234 L 136.247 440.234 L 136.247 440.234 Q 142.06 443.632 148.95 443.632 L 148.95 443.632 L 148.95 443.632 Q 155.372 443.632 160.903 440.632 L 160.903 440.632 L 160.903 440.632 Q 166.435 437.632 169.903 432.523 L 169.903 432.523 L 172.669 434.445 L 172.669 434.445 Q 168.732 440.257 162.474 443.632 L 162.474 443.632 L 162.474 443.632 Q 156.216 447.007 148.95 447.007 L 148.95 447.007 L 148.95 447.007 Q 141.169 447.007 134.56 443.164 L 134.56 443.164 L 134.56 443.164 Q 127.95 439.32 124.107 432.711 L 124.107 432.711 L 124.107 432.711 Q 120.263 426.101 120.263 418.32 L 120.263 418.32 L 120.263 418.32 Q 120.263 410.539 124.107 403.929 L 124.107 403.929 L 124.107 403.929 Q 127.95 397.32 134.56 393.476 L 134.56 393.476 L 134.56 393.476 Q 141.169 389.632 148.95 389.632 L 148.95 389.632 L 148.95 389.632 Q 156.216 389.632 162.474 393.007 L 162.474 393.007 L 162.474 393.007 Q 168.732 396.382 172.669 402.195 Z  M 178.294 398.445 L 178.294 398.445 L 175.482 400.273 L 175.482 400.273 Q 171.075 393.804 164.067 390.031 L 164.067 390.031 L 164.067 390.031 Q 157.06 386.257 148.95 386.257 L 148.95 386.257 L 148.95 386.257 Q 142.435 386.257 136.482 388.789 L 136.482 388.789 L 136.482 388.789 Q 130.528 391.32 126.239 395.609 L 126.239 395.609 L 126.239 395.609 Q 121.95 399.898 119.419 405.851 L 119.419 405.851 L 119.419 405.851 Q 116.888 411.804 116.888 418.32 L 116.888 418.32 L 116.888 418.32 Q 116.888 424.836 119.419 430.789 L 119.419 430.789 L 119.419 430.789 Q 121.95 436.742 126.239 441.031 L 126.239 441.031 L 126.239 441.031 Q 130.528 445.32 136.482 447.851 L 136.482 447.851 L 136.482 447.851 Q 142.435 450.382 148.95 450.382 L 148.95 450.382 L 148.95 450.382 Q 157.107 450.382 164.091 446.586 L 164.091 446.586 L 164.091 446.586 Q 171.075 442.789 175.482 436.32 L 175.482 436.32 L 178.2 438.336 L 178.2 438.336 Q 173.325 445.461 165.614 449.609 L 165.614 449.609 L 165.614 449.609 Q 157.903 453.757 148.95 453.757 L 148.95 453.757 L 148.95 453.757 Q 139.341 453.757 131.185 449 L 131.185 449 L 131.185 449 Q 123.028 444.242 118.271 436.086 L 118.271 436.086 L 118.271 436.086 Q 113.513 427.929 113.513 418.32 L 113.513 418.32 L 113.513 418.32 Q 113.513 408.711 118.271 400.554 L 118.271 400.554 L 118.271 400.554 Q 123.028 392.398 131.185 387.64 L 131.185 387.64 L 131.185 387.64 Q 139.341 382.882 148.95 382.882 L 148.95 382.882 L 148.95 382.882 Q 157.95 382.882 165.685 387.078 L 165.685 387.078 L 165.685 387.078 Q 173.419 391.273 178.294 398.445 Z  M 183.825 394.601 L 183.825 394.601 L 181.013 396.429 L 181.013 396.429 Q 175.669 388.601 167.208 384.054 L 167.208 384.054 L 167.208 384.054 Q 158.747 379.507 148.95 379.507 L 148.95 379.507 L 148.95 379.507 Q 141.075 379.507 133.88 382.578 L 133.88 382.578 L 133.88 382.578 Q 126.685 385.648 121.482 390.851 L 121.482 390.851 L 121.482 390.851 Q 116.278 396.054 113.208 403.25 L 113.208 403.25 L 113.208 403.25 Q 110.138 410.445 110.138 418.32 L 110.138 418.32 L 110.138 418.32 Q 110.138 426.195 113.208 433.39 L 113.208 433.39 L 113.208 433.39 Q 116.278 440.586 121.482 445.789 L 121.482 445.789 L 121.482 445.789 Q 126.685 450.992 133.88 454.062 L 133.88 454.062 L 133.88 454.062 Q 141.075 457.132 148.95 457.132 L 148.95 457.132 L 148.95 457.132 Q 158.747 457.132 167.232 452.539 L 167.232 452.539 L 167.232 452.539 Q 175.716 447.945 181.06 440.117 L 181.06 440.117 L 183.778 442.179 L 183.778 442.179 Q 177.966 450.617 168.778 455.562 L 168.778 455.562 L 168.778 455.562 Q 159.591 460.507 148.95 460.507 L 148.95 460.507 L 148.95 460.507 Q 140.372 460.507 132.567 457.156 L 132.567 457.156 L 132.567 457.156 Q 124.763 453.804 119.114 448.156 L 119.114 448.156 L 119.114 448.156 Q 113.466 442.507 110.114 434.703 L 110.114 434.703 L 110.114 434.703 Q 106.763 426.898 106.763 418.32 L 106.763 418.32 L 106.763 418.32 Q 106.763 409.742 110.114 401.937 L 110.114 401.937 L 110.114 401.937 Q 113.466 394.132 119.114 388.484 L 119.114 388.484 L 119.114 388.484 Q 124.763 382.836 132.567 379.484 L 132.567 379.484 L 132.567 379.484 Q 140.372 376.132 148.95 376.132 L 148.95 376.132 L 148.95 376.132 Q 159.638 376.132 168.825 381.101 L 168.825 381.101 L 168.825 381.101 Q 178.013 386.07 183.825 394.601 Z  M 217.622 405.195 L 217.622 405.195 L 217.622 405.195 Q 212.185 410.632 212.185 418.32 L 212.185 418.32 L 212.185 418.32 Q 212.185 426.007 217.622 431.445 L 217.622 431.445 L 217.622 431.445 Q 223.06 436.882 230.747 436.882 L 230.747 436.882 L 230.747 436.882 Q 238.435 436.882 243.872 431.445 L 243.872 431.445 L 243.872 431.445 Q 249.31 426.007 249.31 418.32 L 249.31 418.32 L 249.31 418.32 Q 249.31 410.632 243.872 405.195 L 243.872 405.195 L 243.872 405.195 Q 238.435 399.757 230.747 399.757 L 230.747 399.757 L 230.747 399.757 Q 223.06 399.757 217.622 405.195 Z  M 210.544 426.828 L 210.544 426.828 L 210.544 426.828 Q 208.81 422.773 208.81 418.32 L 208.81 418.32 L 208.81 418.32 Q 208.81 413.867 210.544 409.812 L 210.544 409.812 L 210.544 409.812 Q 212.278 405.757 215.232 402.804 L 215.232 402.804 L 215.232 402.804 Q 218.185 399.851 222.239 398.117 L 222.239 398.117 L 222.239 398.117 Q 226.294 396.382 230.747 396.382 L 230.747 396.382 L 230.747 396.382 Q 235.2 396.382 239.255 398.117 L 239.255 398.117 L 239.255 398.117 Q 243.31 399.851 246.263 402.804 L 246.263 402.804 L 246.263 402.804 Q 249.216 405.757 250.95 409.812 L 250.95 409.812 L 250.95 409.812 Q 252.685 413.867 252.685 418.32 L 252.685 418.32 L 252.685 418.32 Q 252.685 422.773 250.95 426.828 L 250.95 426.828 L 250.95 426.828 Q 249.216 430.882 246.263 433.836 L 246.263 433.836 L 246.263 433.836 Q 243.31 436.789 239.255 438.523 L 239.255 438.523 L 239.255 438.523 Q 235.2 440.257 230.747 440.257 L 230.747 440.257 L 230.747 440.257 Q 226.294 440.257 222.239 438.523 L 222.239 438.523 L 222.239 438.523 Q 218.185 436.789 215.232 433.836 L 215.232 433.836 L 215.232 433.836 Q 212.278 430.882 210.544 426.828 Z  M 208.833 405.617 L 208.833 405.617 L 208.833 405.617 Q 205.435 411.429 205.435 418.32 L 205.435 418.32 L 205.435 418.32 Q 205.435 425.211 208.833 431.023 L 208.833 431.023 L 208.833 431.023 Q 212.232 436.836 218.044 440.234 L 218.044 440.234 L 218.044 440.234 Q 223.857 443.632 230.747 443.632 L 230.747 443.632 L 230.747 443.632 Q 237.638 443.632 243.45 440.234 L 243.45 440.234 L 243.45 440.234 Q 249.263 436.836 252.661 431.023 L 252.661 431.023 L 252.661 431.023 Q 256.06 425.211 256.06 418.32 L 256.06 418.32 L 256.06 418.32 Q 256.06 411.429 252.661 405.617 L 252.661 405.617 L 252.661 405.617 Q 249.263 399.804 243.45 396.406 L 243.45 396.406 L 243.45 396.406 Q 237.638 393.007 230.747 393.007 L 230.747 393.007 L 230.747 393.007 Q 223.857 393.007 218.044 396.406 L 218.044 396.406 L 218.044 396.406 Q 212.232 399.804 208.833 405.617 Z  M 205.903 432.711 L 205.903 432.711 L 205.903 432.711 Q 202.06 426.101 202.06 418.32 L 202.06 418.32 L 202.06 418.32 Q 202.06 410.539 205.903 403.929 L 205.903 403.929 L 205.903 403.929 Q 209.747 397.32 216.357 393.476 L 216.357 393.476 L 216.357 393.476 Q 222.966 389.632 230.747 389.632 L 230.747 389.632 L 230.747 389.632 Q 238.528 389.632 245.138 393.476 L 245.138 393.476 L 245.138 393.476 Q 251.747 397.32 255.591 403.929 L 255.591 403.929 L 255.591 403.929 Q 259.435 410.539 259.435 418.32 L 259.435 418.32 L 259.435 418.32 Q 259.435 426.101 255.591 432.711 L 255.591 432.711 L 255.591 432.711 Q 251.747 439.32 245.138 443.164 L 245.138 443.164 L 245.138 443.164 Q 238.528 447.007 230.747 447.007 L 230.747 447.007 L 230.747 447.007 Q 222.966 447.007 216.357 443.164 L 216.357 443.164 L 216.357 443.164 Q 209.747 439.32 205.903 432.711 Z  M 201.216 405.851 L 201.216 405.851 L 201.216 405.851 Q 198.685 411.804 198.685 418.32 L 198.685 418.32 L 198.685 418.32 Q 198.685 424.836 201.216 430.789 L 201.216 430.789 L 201.216 430.789 Q 203.747 436.742 208.036 441.031 L 208.036 441.031 L 208.036 441.031 Q 212.325 445.32 218.278 447.851 L 218.278 447.851 L 218.278 447.851 Q 224.232 450.382 230.747 450.382 L 230.747 450.382 L 230.747 450.382 Q 237.263 450.382 243.216 447.851 L 243.216 447.851 L 243.216 447.851 Q 249.169 445.32 253.458 441.031 L 253.458 441.031 L 253.458 441.031 Q 257.747 436.742 260.278 430.789 L 260.278 430.789 L 260.278 430.789 Q 262.81 424.836 262.81 418.32 L 262.81 418.32 L 262.81 418.32 Q 262.81 411.804 260.278 405.851 L 260.278 405.851 L 260.278 405.851 Q 257.747 399.898 253.458 395.609 L 253.458 395.609 L 253.458 395.609 Q 249.169 391.32 243.216 388.789 L 243.216 388.789 L 243.216 388.789 Q 237.263 386.257 230.747 386.257 L 230.747 386.257 L 230.747 386.257 Q 224.232 386.257 218.278 388.789 L 218.278 388.789 L 218.278 388.789 Q 212.325 391.32 208.036 395.609 L 208.036 395.609 L 208.036 395.609 Q 203.747 399.898 201.216 405.851 Z  M 200.067 436.086 L 200.067 436.086 L 200.067 436.086 Q 195.31 427.929 195.31 418.32 L 195.31 418.32 L 195.31 418.32 Q 195.31 408.711 200.067 400.554 L 200.067 400.554 L 200.067 400.554 Q 204.825 392.398 212.982 387.64 L 212.982 387.64 L 212.982 387.64 Q 221.138 382.882 230.747 382.882 L 230.747 382.882 L 230.747 382.882 Q 240.357 382.882 248.513 387.64 L 248.513 387.64 L 248.513 387.64 Q 256.669 392.398 261.427 400.554 L 261.427 400.554 L 261.427 400.554 Q 266.185 408.711 266.185 418.32 L 266.185 418.32 L 266.185 418.32 Q 266.185 427.929 261.427 436.086 L 261.427 436.086 L 261.427 436.086 Q 256.669 444.242 248.513 449 L 248.513 449 L 248.513 449 Q 240.357 453.757 230.747 453.757 L 230.747 453.757 L 230.747 453.757 Q 221.138 453.757 212.982 449 L 212.982 449 L 212.982 449 Q 204.825 444.242 200.067 436.086 Z  M 195.005 403.25 L 195.005 403.25 L 195.005 403.25 Q 191.935 410.445 191.935 418.32 L 191.935 418.32 L 191.935 418.32 Q 191.935 426.195 195.005 433.39 L 195.005 433.39 L 195.005 433.39 Q 198.075 440.586 203.278 445.789 L 203.278 445.789 L 203.278 445.789 Q 208.482 450.992 215.677 454.062 L 215.677 454.062 L 215.677 454.062 Q 222.872 457.132 230.747 457.132 L 230.747 457.132 L 230.747 457.132 Q 238.622 457.132 245.817 454.062 L 245.817 454.062 L 245.817 454.062 Q 253.013 450.992 258.216 445.789 L 258.216 445.789 L 258.216 445.789 Q 263.419 440.586 266.489 433.39 L 266.489 433.39 L 266.489 433.39 Q 269.56 426.195 269.56 418.32 L 269.56 418.32 L 269.56 418.32 Q 269.56 410.445 266.489 403.25 L 266.489 403.25 L 266.489 403.25 Q 263.419 396.054 258.216 390.851 L 258.216 390.851 L 258.216 390.851 Q 253.013 385.648 245.817 382.578 L 245.817 382.578 L 245.817 382.578 Q 238.622 379.507 230.747 379.507 L 230.747 379.507 L 230.747 379.507 Q 222.872 379.507 215.677 382.578 L 215.677 382.578 L 215.677 382.578 Q 208.482 385.648 203.278 390.851 L 203.278 390.851 L 203.278 390.851 Q 198.075 396.054 195.005 403.25 Z  M 191.911 434.703 L 191.911 434.703 L 191.911 434.703 Q 188.56 426.898 188.56 418.32 L 188.56 418.32 L 188.56 418.32 Q 188.56 409.742 191.911 401.937 L 191.911 401.937 L 191.911 401.937 Q 195.263 394.132 200.911 388.484 L 200.911 388.484 L 200.911 388.484 Q 206.56 382.836 214.364 379.484 L 214.364 379.484 L 214.364 379.484 Q 222.169 376.132 230.747 376.132 L 230.747 376.132 L 230.747 376.132 Q 239.325 376.132 247.13 379.484 L 247.13 379.484 L 247.13 379.484 Q 254.935 382.836 260.583 388.484 L 260.583 388.484 L 260.583 388.484 Q 266.232 394.132 269.583 401.937 L 269.583 401.937 L 269.583 401.937 Q 272.935 409.742 272.935 418.32 L 272.935 418.32 L 272.935 418.32 Q 272.935 426.898 269.583 434.703 L 269.583 434.703 L 269.583 434.703 Q 266.232 442.507 260.583 448.156 L 260.583 448.156 L 260.583 448.156 Q 254.935 453.804 247.13 457.156 L 247.13 457.156 L 247.13 457.156 Q 239.325 460.507 230.747 460.507 L 230.747 460.507 L 230.747 460.507 Q 222.169 460.507 214.364 457.156 L 214.364 457.156 L 214.364 457.156 Q 206.56 453.804 200.911 448.156 L 200.911 448.156 L 200.911 448.156 Q 195.263 442.507 191.911 434.703 Z  M 335.794 457.132 L 335.794 428.82 L 339.169 422.445 L 339.169 457.132 L 335.794 457.132 L 335.794 457.132 Z  M 342.544 457.132 L 342.544 415.882 L 345.919 409.507 L 345.919 457.132 L 342.544 457.132 L 342.544 457.132 Z  M 349.294 457.132 L 349.294 403.132 L 352.669 396.711 L 352.669 457.132 L 349.294 457.132 L 349.294 457.132 Z  M 351.778 379.507 L 326.653 427.226 L 324.732 423.711 L 347.982 379.507 L 351.778 379.507 L 351.778 379.507 Z  M 344.138 379.507 L 322.763 419.867 L 320.794 416.304 L 340.294 379.507 L 344.138 379.507 L 344.138 379.507 Z  M 300.169 457.132 L 300.169 422.82 L 303.544 429.195 L 303.544 457.132 L 300.169 457.132 L 300.169 457.132 Z  M 293.419 457.132 L 293.419 409.976 L 296.794 416.351 L 296.794 457.132 L 293.419 457.132 L 293.419 457.132 Z  M 286.669 457.132 L 286.669 397.132 L 290.044 403.554 L 290.044 457.132 L 286.669 457.132 L 286.669 457.132 Z  M 283.716 379.507 L 313.95 436.882 L 310.153 436.882 L 283.294 385.929 L 283.294 457.132 L 279.919 457.132 L 279.919 379.507 L 283.716 379.507 L 283.716 379.507 Z  M 291.403 379.507 L 321.591 436.882 L 317.747 436.882 L 287.56 379.507 L 291.403 379.507 L 291.403 379.507 Z  M 356.044 457.132 L 356.044 385.929 L 329.185 436.882 L 325.341 436.882 L 295.2 379.507 L 298.997 379.507 L 327.31 433.32 L 355.575 379.507 L 359.419 379.507 L 359.419 457.132 L 356.044 457.132 L 356.044 457.132 Z  M 385.2 379.507 L 385.2 457.132 L 381.825 457.132 L 381.825 379.507 L 385.2 379.507 L 385.2 379.507 Z  M 378.45 379.507 L 378.45 457.132 L 375.075 457.132 L 375.075 379.507 L 378.45 379.507 L 378.45 379.507 Z  M 371.7 379.507 L 371.7 457.132 L 368.325 457.132 L 368.325 379.507 L 371.7 379.507 L 371.7 379.507 Z  M 391.95 426.757 L 391.95 440.257 L 427.857 440.257 L 427.857 443.632 L 391.95 443.632 L 391.95 447.007 L 427.857 447.007 L 427.857 450.382 L 391.95 450.382 L 391.95 453.757 L 427.857 453.757 L 427.857 457.132 L 388.575 457.132 L 388.575 379.507 L 427.857 379.507 L 427.857 382.882 L 391.95 382.882 L 391.95 386.257 L 427.857 386.257 L 427.857 389.632 L 391.95 389.632 L 391.95 393.007 L 427.857 393.007 L 427.857 396.382 L 391.95 396.382 L 391.95 409.882 L 410.372 409.882 L 410.372 413.257 L 391.95 413.257 L 391.95 416.632 L 410.372 416.632 L 410.372 420.007 L 391.95 420.007 L 391.95 423.382 L 410.372 423.382 L 410.372 426.757 L 391.95 426.757 L 391.95 426.757 Z  M 485.278 382.882 L 434.653 382.882 L 434.653 379.507 L 485.278 379.507 L 485.278 382.882 L 485.278 382.882 Z  M 485.278 389.632 L 434.653 389.632 L 434.653 386.257 L 485.278 386.257 L 485.278 389.632 L 485.278 389.632 Z  M 448.153 396.382 L 434.653 396.382 L 434.653 393.007 L 485.278 393.007 L 485.278 396.382 L 471.778 396.382 L 471.778 457.132 L 468.403 457.132 L 468.403 396.382 L 465.028 396.382 L 465.028 457.132 L 461.653 457.132 L 461.653 396.382 L 458.278 396.382 L 458.278 457.132 L 454.903 457.132 L 454.903 396.382 L 451.528 396.382 L 451.528 457.132 L 448.153 457.132 L 448.153 396.382 L 448.153 396.382 Z " fill="rgb(40,142,223)"/></svg>